<svg width="106" height="106" viewBox="0 0 106 106" fill="none" xmlns="http://www.w3.org/2000/svg">
    <path
        d="M52.8714 15.1724C42.5285 15.1724 41.2304 15.2176 37.1682 15.4025C33.1138 15.5881 30.3464 16.23 27.9249 17.1718C25.4201 18.1446 23.2954 19.4458 21.1785 21.5635C19.0601 23.6804 17.7589 25.8052 16.783 28.3093C15.8389 30.7316 15.1962 33.5 15.0137 37.5528C14.832 41.6152 14.7844 42.9141 14.7844 53.2573C14.7844 63.6005 14.8304 64.8946 15.0145 68.957C15.201 73.0115 15.8428 75.779 16.7838 78.2006C17.7573 80.7054 19.0585 82.8303 21.1761 84.9472C23.2922 87.0656 25.4169 88.37 27.9202 89.3428C30.3432 90.2846 33.1114 90.9265 37.165 91.1122C41.2273 91.297 42.5245 91.3423 52.8666 91.3423C63.2103 91.3423 64.5044 91.297 68.5667 91.1122C72.621 90.9265 75.3916 90.2846 77.8147 89.3428C80.3187 88.37 82.4403 87.0656 84.5563 84.9472C86.6747 82.8303 87.9759 80.7054 88.9518 78.2014C89.888 75.779 90.5307 73.0107 90.7211 68.9578C90.9036 64.8954 90.9512 63.6005 90.9512 53.2573C90.9512 42.9141 90.9036 41.616 90.7211 37.5536C90.5307 33.4992 89.888 30.7316 88.9518 28.3101C87.9759 25.8052 86.6747 23.6804 84.5563 21.5635C82.4379 19.445 80.3195 18.1438 77.8123 17.1718C75.3845 16.23 72.6155 15.5881 68.5611 15.4025C64.4988 15.2176 63.2056 15.1724 52.8595 15.1724H52.8714ZM49.455 22.0356C50.4689 22.034 51.6003 22.0356 52.8714 22.0356C63.0398 22.0356 64.245 22.0721 68.2604 22.2546C71.9736 22.4244 73.9888 23.0448 75.3313 23.5661C77.1085 24.2564 78.3756 25.0816 79.7078 26.4146C81.0407 27.7475 81.8658 29.017 82.5577 30.7943C83.079 32.1352 83.7002 34.1506 83.8692 37.8638C84.0517 41.8786 84.0914 43.0847 84.0914 53.2486C84.0914 63.4125 84.0517 64.6185 83.8692 68.6333C83.6994 72.3466 83.079 74.3619 82.5577 75.7028C81.8674 77.4801 81.0407 78.7457 79.7078 80.0778C78.3748 81.4108 77.1093 82.236 75.3313 82.9263C73.9904 83.4499 71.9736 84.0688 68.2604 84.2386C64.2457 84.4211 63.0398 84.4608 52.8714 84.4608C42.7022 84.4608 41.497 84.4211 37.4824 84.2386C33.7692 84.0672 31.7539 83.4468 30.4107 82.9255C28.6334 82.2352 27.364 81.41 26.031 80.077C24.6981 78.7441 23.873 77.4777 23.1811 75.6997C22.6598 74.3587 22.0386 72.3434 21.8696 68.6301C21.6871 64.6153 21.6506 63.4093 21.6506 53.2391C21.6506 43.0688 21.6871 41.8691 21.8696 37.8543C22.0394 34.141 22.6598 32.1257 23.1811 30.7832C23.8714 29.0059 24.6981 27.7364 26.031 26.4035C27.364 25.0705 28.6334 24.2453 30.4107 23.5534C31.7531 23.0298 33.7692 22.4109 37.4824 22.2403C40.9956 22.0816 42.3571 22.034 49.455 22.0261V22.0356ZM73.2002 28.3593C70.6771 28.3593 68.6301 30.404 68.6301 32.9279C68.6301 35.451 70.6771 37.4981 73.2002 37.4981C75.7232 37.4981 77.7703 35.451 77.7703 32.9279C77.7703 30.4048 75.7232 28.3577 73.2002 28.3577V28.3593ZM52.8714 33.6991C42.0707 33.6991 33.3138 42.4563 33.3138 53.2573C33.3138 64.0584 42.0707 72.8115 52.8714 72.8115C63.6721 72.8115 72.4258 64.0584 72.4258 53.2573C72.4258 42.4563 63.6713 33.6991 52.8706 33.6991H52.8714ZM52.8714 40.5623C59.882 40.5623 65.566 46.2457 65.566 53.2573C65.566 60.2681 59.882 65.9523 52.8714 65.9523C45.86 65.9523 40.1768 60.2681 40.1768 53.2573C40.1768 46.2457 45.86 40.5623 52.8714 40.5623Z"
        fill="black" />
</svg>