<svg width="106" height="106" viewBox="0 0 106 106" fill="none" xmlns="http://www.w3.org/2000/svg">
        <path fill-rule="evenodd" clip-rule="evenodd"
                d="M21.1768 16.1643C18.2686 16.1643 15.911 18.5219 15.911 21.4301V85.0847C15.911 87.9929 18.2686 90.3504 21.1768 90.3504H84.8316C87.7398 90.3504 90.0973 87.9929 90.0973 85.0847V21.4301C90.0973 18.5219 87.7398 16.1643 84.8315 16.1643H21.1768ZM32.5624 39.2029C36.1167 39.2029 38.9981 36.3216 38.9981 32.7672C38.9981 29.2129 36.1167 26.3316 32.5624 26.3316C29.0081 26.3316 26.1268 29.2129 26.1268 32.7672C26.1268 36.3216 29.0081 39.2029 32.5624 39.2029ZM44.892 43.959H55.558V48.8451C55.558 48.8451 58.4523 43.0564 66.3274 43.0564C73.3524 43.0564 79.1718 46.5171 79.1718 57.0654V79.3089H68.1188V59.7608C68.1188 53.5382 64.7967 52.8538 62.2653 52.8538C57.0117 52.8538 56.1123 57.3854 56.1123 60.5724V79.3089H44.892V43.959ZM38.1726 43.9591H26.9523V79.3089H38.1726V43.9591Z"
                fill="black" />
</svg>