<svg width="106" height="106" viewBox="0 0 106 106" fill="none" xmlns="http://www.w3.org/2000/svg">
    <path fill-rule="evenodd" clip-rule="evenodd"
        d="M13.8373 53.2574C13.8373 72.6768 28.02 88.8232 46.5666 92.0961L46.7854 91.9211C46.7124 91.907 46.6394 91.8926 46.5664 91.878V64.1672H36.7476V53.2575H46.5664V44.5297C46.5664 34.7109 52.894 29.256 61.84 29.256C64.6765 29.256 67.7313 29.6924 70.5678 30.1288V40.1658H65.5493C60.749 40.1658 59.6581 42.5659 59.6581 45.6206V53.2575H70.1314L68.3859 64.1672H59.6581V91.878C59.5852 91.8926 59.5123 91.9069 59.4394 91.921L59.6583 92.0961C78.2049 88.8232 92.3876 72.6768 92.3876 53.2574C92.3876 31.6561 74.7138 13.9823 53.1124 13.9823C31.5111 13.9823 13.8373 31.6561 13.8373 53.2574Z"
        fill="black" />
</svg>