<svg width="90" height="89" viewBox="0 0 90 89" fill="none" xmlns="http://www.w3.org/2000/svg">
    <path
        d="M23.1203 64.065H31.3135V44.1671L19.6089 35.3887V60.5536C19.6089 62.4966 21.1832 64.065 23.1203 64.065Z"
        fill="#000000" />
    <path
        d="M59.4053 64.065H67.5985C69.5415 64.065 71.1099 62.4908 71.1099 60.5536V35.3887L59.4053 44.1671"
        fill="#000000" />
    <path
        d="M59.4053 28.9515V44.1676L71.1099 35.3891V30.7072C71.1099 26.3648 66.153 23.8893 62.6826 26.4936"
        fill="#000000" />
    <path d="M31.3135 44.1672V28.9512L45.359 39.4853L59.4046 28.9512V44.1672L45.359 54.7014"
        fill="#000000" />
    <path
        d="M19.6089 30.7072V35.3891L31.3135 44.1676V28.9515L28.0362 26.4936C24.5599 23.8893 19.6089 26.3648 19.6089 30.7072Z"
        fill="#000000" />
</svg>