<svg width="106" height="106" viewBox="0 0 106 106" fill="none" xmlns="http://www.w3.org/2000/svg">
    <path
        d="M15.911 21.2174C15.911 18.3092 18.2686 15.9517 21.1768 15.9517H84.8316C87.7398 15.9517 90.0973 18.3092 90.0973 21.2174V84.872C90.0973 87.7802 87.7398 90.1378 84.8316 90.1378H21.1768C18.2686 90.1378 15.911 87.7802 15.911 84.872V21.2174Z"
        fill="#0A66C2" />
    <path
        d="M32.5633 38.9904C36.1176 38.9904 38.9989 36.1091 38.9989 32.5548C38.9989 29.0005 36.1176 26.1191 32.5633 26.1191C29.009 26.1191 26.1276 29.0005 26.1276 32.5548C26.1276 36.1091 29.009 38.9904 32.5633 38.9904Z"
        fill="white" />
    <path
        d="M44.8929 43.7466H55.5588V48.6327C55.5588 48.6327 58.4532 42.844 66.3283 42.844C73.3532 42.844 79.1726 46.3046 79.1726 56.853V79.0964H68.1197V59.5483C68.1197 53.3258 64.7976 52.6414 62.2661 52.6414C57.0125 52.6414 56.1131 57.1729 56.1131 60.36V79.0964H44.8929V43.7466Z"
        fill="white" />
    <path d="M26.9532 43.7466H38.1734V79.0965H26.9532V43.7466Z" fill="white" />
</svg>