<svg width="106" height="106" viewBox="0 0 106 106" fill="none" xmlns="http://www.w3.org/2000/svg">
    <path
        d="M46.5666 91.8836C28.02 88.6107 13.8373 72.4642 13.8373 53.0449C13.8373 31.4436 31.5111 13.7698 53.1124 13.7698C74.7138 13.7698 92.3876 31.4436 92.3876 53.0449C92.3876 72.4642 78.2049 88.6107 59.6583 91.8836L57.4763 90.138H48.7485L46.5666 91.8836Z"
    />
    <path
        d="M68.3859 63.9544L70.1315 53.0447H59.6581V45.4078C59.6581 42.3531 60.7491 39.953 65.5494 39.953H70.5679V29.916C67.7313 29.4796 64.6766 29.0432 61.8401 29.0432C52.8941 29.0432 46.5664 34.4981 46.5664 44.3169V53.0447H36.7477V63.9544H46.5664V91.6652C48.7484 92.1016 50.9303 92.3198 53.1123 92.3198C55.2942 92.3198 57.4762 92.1016 59.6581 91.6652V63.9544H68.3859Z"
        fill="white" />
    <defs>
        <clipPath id="Facebook">
            <path
                d="M46.5666 91.8836C28.02 88.6107 13.8373 72.4642 13.8373 53.0449C13.8373 31.4436 31.5111 13.7698 53.1124 13.7698C74.7138 13.7698 92.3876 31.4436 92.3876 53.0449C92.3876 72.4642 78.2049 88.6107 59.6583 91.8836L57.4763 90.138H48.7485L46.5666 91.8836Z" />
        </clipPath>
    </defs>
</svg>