<svg width="106" height="106" viewBox="0 0 106 106" fill="none" xmlns="http://www.w3.org/2000/svg">
    <path
        d="M52.8714 14.9597C42.5285 14.9597 41.2304 15.0049 37.1682 15.1898C33.1138 15.3755 30.3464 16.0174 27.9249 16.9592C25.4201 17.9319 23.2954 19.2332 21.1785 21.3508C19.0601 23.4677 17.7589 25.5926 16.783 28.0966C15.8389 30.519 15.1962 33.2873 15.0137 37.3402C14.832 41.4026 14.7844 42.7014 14.7844 53.0447C14.7844 63.3879 14.8304 64.682 15.0145 68.7444C15.201 72.7988 15.8428 75.5663 16.7838 77.9879C17.7573 80.4928 19.0585 82.6176 21.1761 84.7345C23.2922 86.853 25.4169 88.1574 27.9202 89.1301C30.3432 90.072 33.1114 90.7138 37.165 90.8995C41.2273 91.0844 42.5245 91.1296 52.8666 91.1296C63.2103 91.1296 64.5044 91.0844 68.5667 90.8995C72.621 90.7138 75.3916 90.072 77.8147 89.1301C80.3187 88.1574 82.4403 86.853 84.5563 84.7345C86.6747 82.6176 87.9759 80.4928 88.9518 77.9887C89.888 75.5664 90.5307 72.7981 90.7211 68.7452C90.9036 64.6828 90.9512 63.3879 90.9512 53.0447C90.9512 42.7014 90.9036 41.4034 90.7211 37.341C90.5307 33.2865 89.888 30.519 88.9518 28.0974C87.9759 25.5926 86.6747 23.4677 84.5563 21.3508C82.4379 19.2324 80.3195 17.9311 77.8123 16.9592C75.3845 16.0174 72.6155 15.3755 68.5611 15.1898C64.4988 15.0049 63.2056 14.9597 52.8595 14.9597H52.8714ZM49.455 21.8229C50.4689 21.8214 51.6003 21.8229 52.8714 21.8229C63.0398 21.8229 64.245 21.8594 68.2604 22.0419C71.9736 22.2117 73.9888 22.8322 75.3313 23.3535C77.1085 24.0438 78.3756 24.8689 79.7078 26.2019C81.0407 27.5349 81.8658 28.8044 82.5577 30.5817C83.079 31.9226 83.7002 33.9379 83.8692 37.6512C84.0517 41.666 84.0914 42.872 84.0914 53.0359C84.0914 63.1999 84.0517 64.4059 83.8692 68.4207C83.6994 72.1339 83.079 74.1493 82.5577 75.4902C81.8674 77.2675 81.0407 78.533 79.7078 79.8652C78.3748 81.1982 77.1093 82.0233 75.3313 82.7136C73.9904 83.2373 71.9736 83.8562 68.2604 84.026C64.2457 84.2085 63.0398 84.2481 52.8714 84.2481C42.7022 84.2481 41.497 84.2085 37.4824 84.026C33.7692 83.8546 31.7539 83.2341 30.4107 82.7128C28.6334 82.0225 27.364 81.1974 26.031 79.8644C24.6981 78.5314 23.873 77.2651 23.1811 75.487C22.6598 74.1461 22.0386 72.1308 21.8696 68.4175C21.6871 64.4027 21.6506 63.1967 21.6506 53.0264C21.6506 42.8561 21.6871 41.6565 21.8696 37.6417C22.0394 33.9284 22.6598 31.9131 23.1811 30.5706C23.8714 28.7933 24.6981 27.5238 26.031 26.1908C27.364 24.8578 28.6334 24.0327 30.4107 23.3408C31.7531 22.8171 33.7692 22.1982 37.4824 22.0276C40.9956 21.869 42.3571 21.8214 49.455 21.8134V21.8229ZM73.2002 28.1466C70.6771 28.1466 68.6301 30.1913 68.6301 32.7152C68.6301 35.2384 70.6771 37.2854 73.2002 37.2854C75.7232 37.2854 77.7703 35.2384 77.7703 32.7152C77.7703 30.1921 75.7232 28.145 73.2002 28.145V28.1466ZM52.8714 33.4865C42.0707 33.4865 33.3138 42.2436 33.3138 53.0447C33.3138 63.8457 42.0707 72.5989 52.8714 72.5989C63.6721 72.5989 72.4258 63.8457 72.4258 53.0447C72.4258 42.2436 63.6713 33.4865 52.8706 33.4865H52.8714ZM52.8714 40.3497C59.882 40.3497 65.566 46.0331 65.566 53.0447C65.566 60.0555 59.882 65.7396 52.8714 65.7396C45.86 65.7396 40.1768 60.0555 40.1768 53.0447C40.1768 46.0331 45.86 40.3497 52.8714 40.3497V40.3497Z"
    />
    <path
        d="M52.8714 14.9597C42.5285 14.9597 41.2304 15.0049 37.1682 15.1898C33.1138 15.3755 30.3464 16.0174 27.9249 16.9592C25.4201 17.9319 23.2954 19.2332 21.1785 21.3508C19.0601 23.4677 17.7589 25.5926 16.783 28.0966C15.8389 30.519 15.1962 33.2873 15.0137 37.3402C14.832 41.4026 14.7844 42.7014 14.7844 53.0447C14.7844 63.3879 14.8304 64.682 15.0145 68.7444C15.201 72.7988 15.8428 75.5663 16.7838 77.9879C17.7573 80.4928 19.0585 82.6176 21.1761 84.7345C23.2922 86.853 25.4169 88.1574 27.9202 89.1301C30.3432 90.072 33.1114 90.7138 37.165 90.8995C41.2273 91.0844 42.5245 91.1296 52.8666 91.1296C63.2103 91.1296 64.5044 91.0844 68.5667 90.8995C72.621 90.7138 75.3916 90.072 77.8147 89.1301C80.3187 88.1574 82.4403 86.853 84.5563 84.7345C86.6747 82.6176 87.9759 80.4928 88.9518 77.9887C89.888 75.5664 90.5307 72.7981 90.7211 68.7452C90.9036 64.6828 90.9512 63.3879 90.9512 53.0447C90.9512 42.7014 90.9036 41.4034 90.7211 37.341C90.5307 33.2865 89.888 30.519 88.9518 28.0974C87.9759 25.5926 86.6747 23.4677 84.5563 21.3508C82.4379 19.2324 80.3195 17.9311 77.8123 16.9592C75.3845 16.0174 72.6155 15.3755 68.5611 15.1898C64.4988 15.0049 63.2056 14.9597 52.8595 14.9597H52.8714ZM49.455 21.8229C50.4689 21.8214 51.6003 21.8229 52.8714 21.8229C63.0398 21.8229 64.245 21.8594 68.2604 22.0419C71.9736 22.2117 73.9888 22.8322 75.3313 23.3535C77.1085 24.0438 78.3756 24.8689 79.7078 26.2019C81.0407 27.5349 81.8658 28.8044 82.5577 30.5817C83.079 31.9226 83.7002 33.9379 83.8692 37.6512C84.0517 41.666 84.0914 42.872 84.0914 53.0359C84.0914 63.1999 84.0517 64.4059 83.8692 68.4207C83.6994 72.1339 83.079 74.1493 82.5577 75.4902C81.8674 77.2675 81.0407 78.533 79.7078 79.8652C78.3748 81.1982 77.1093 82.0233 75.3313 82.7136C73.9904 83.2373 71.9736 83.8562 68.2604 84.026C64.2457 84.2085 63.0398 84.2481 52.8714 84.2481C42.7022 84.2481 41.497 84.2085 37.4824 84.026C33.7692 83.8546 31.7539 83.2341 30.4107 82.7128C28.6334 82.0225 27.364 81.1974 26.031 79.8644C24.6981 78.5314 23.873 77.2651 23.1811 75.487C22.6598 74.1461 22.0386 72.1308 21.8696 68.4175C21.6871 64.4027 21.6506 63.1967 21.6506 53.0264C21.6506 42.8561 21.6871 41.6565 21.8696 37.6417C22.0394 33.9284 22.6598 31.9131 23.1811 30.5706C23.8714 28.7933 24.6981 27.5238 26.031 26.1908C27.364 24.8578 28.6334 24.0327 30.4107 23.3408C31.7531 22.8171 33.7692 22.1982 37.4824 22.0276C40.9956 21.869 42.3571 21.8214 49.455 21.8134V21.8229ZM73.2002 28.1466C70.6771 28.1466 68.6301 30.1913 68.6301 32.7152C68.6301 35.2384 70.6771 37.2854 73.2002 37.2854C75.7232 37.2854 77.7703 35.2384 77.7703 32.7152C77.7703 30.1921 75.7232 28.145 73.2002 28.145V28.1466ZM52.8714 33.4865C42.0707 33.4865 33.3138 42.2436 33.3138 53.0447C33.3138 63.8457 42.0707 72.5989 52.8714 72.5989C63.6721 72.5989 72.4258 63.8457 72.4258 53.0447C72.4258 42.2436 63.6713 33.4865 52.8706 33.4865H52.8714ZM52.8714 40.3497C59.882 40.3497 65.566 46.0331 65.566 53.0447C65.566 60.0555 59.882 65.7396 52.8714 65.7396C45.86 65.7396 40.1768 60.0555 40.1768 53.0447C40.1768 46.0331 45.86 40.3497 52.8714 40.3497V40.3497Z"
    />
    <defs>
        <clipPath id="Instagram">
            <path
                d="M52.8714 14.9597C42.5285 14.9597 41.2304 15.0049 37.1682 15.1898C33.1138 15.3755 30.3464 16.0174 27.9249 16.9592C25.4201 17.9319 23.2954 19.2332 21.1785 21.3508C19.0601 23.4677 17.7589 25.5926 16.783 28.0966C15.8389 30.519 15.1962 33.2873 15.0137 37.3402C14.832 41.4026 14.7844 42.7014 14.7844 53.0447C14.7844 63.3879 14.8304 64.682 15.0145 68.7444C15.201 72.7988 15.8428 75.5663 16.7838 77.9879C17.7573 80.4928 19.0585 82.6176 21.1761 84.7345C23.2922 86.853 25.4169 88.1574 27.9202 89.1301C30.3432 90.072 33.1114 90.7138 37.165 90.8995C41.2273 91.0844 42.5245 91.1296 52.8666 91.1296C63.2103 91.1296 64.5044 91.0844 68.5667 90.8995C72.621 90.7138 75.3916 90.072 77.8147 89.1301C80.3187 88.1574 82.4403 86.853 84.5563 84.7345C86.6747 82.6176 87.9759 80.4928 88.9518 77.9887C89.888 75.5664 90.5307 72.7981 90.7211 68.7452C90.9036 64.6828 90.9512 63.3879 90.9512 53.0447C90.9512 42.7014 90.9036 41.4034 90.7211 37.341C90.5307 33.2865 89.888 30.519 88.9518 28.0974C87.9759 25.5926 86.6747 23.4677 84.5563 21.3508C82.4379 19.2324 80.3195 17.9311 77.8123 16.9592C75.3845 16.0174 72.6155 15.3755 68.5611 15.1898C64.4988 15.0049 63.2056 14.9597 52.8595 14.9597H52.8714ZM49.455 21.8229C50.4689 21.8214 51.6003 21.8229 52.8714 21.8229C63.0398 21.8229 64.245 21.8594 68.2604 22.0419C71.9736 22.2117 73.9888 22.8322 75.3313 23.3535C77.1085 24.0438 78.3756 24.8689 79.7078 26.2019C81.0407 27.5349 81.8658 28.8044 82.5577 30.5817C83.079 31.9226 83.7002 33.9379 83.8692 37.6512C84.0517 41.666 84.0914 42.872 84.0914 53.0359C84.0914 63.1999 84.0517 64.4059 83.8692 68.4207C83.6994 72.1339 83.079 74.1493 82.5577 75.4902C81.8674 77.2675 81.0407 78.533 79.7078 79.8652C78.3748 81.1982 77.1093 82.0233 75.3313 82.7136C73.9904 83.2373 71.9736 83.8562 68.2604 84.026C64.2457 84.2085 63.0398 84.2481 52.8714 84.2481C42.7022 84.2481 41.497 84.2085 37.4824 84.026C33.7692 83.8546 31.7539 83.2341 30.4107 82.7128C28.6334 82.0225 27.364 81.1974 26.031 79.8644C24.6981 78.5314 23.873 77.2651 23.1811 75.487C22.6598 74.1461 22.0386 72.1308 21.8696 68.4175C21.6871 64.4027 21.6506 63.1967 21.6506 53.0264C21.6506 42.8561 21.6871 41.6565 21.8696 37.6417C22.0394 33.9284 22.6598 31.9131 23.1811 30.5706C23.8714 28.7933 24.6981 27.5238 26.031 26.1908C27.364 24.8578 28.6334 24.0327 30.4107 23.3408C31.7531 22.8171 33.7692 22.1982 37.4824 22.0276C40.9956 21.869 42.3571 21.8214 49.455 21.8134V21.8229ZM73.2002 28.1466C70.6771 28.1466 68.6301 30.1913 68.6301 32.7152C68.6301 35.2384 70.6771 37.2854 73.2002 37.2854C75.7232 37.2854 77.7703 35.2384 77.7703 32.7152C77.7703 30.1921 75.7232 28.145 73.2002 28.145V28.1466ZM52.8714 33.4865C42.0707 33.4865 33.3138 42.2436 33.3138 53.0447C33.3138 63.8457 42.0707 72.5989 52.8714 72.5989C63.6721 72.5989 72.4258 63.8457 72.4258 53.0447C72.4258 42.2436 63.6713 33.4865 52.8706 33.4865H52.8714ZM52.8714 40.3497C59.882 40.3497 65.566 46.0331 65.566 53.0447C65.566 60.0555 59.882 65.7396 52.8714 65.7396C45.86 65.7396 40.1768 60.0555 40.1768 53.0447C40.1768 46.0331 45.86 40.3497 52.8714 40.3497V40.3497Z"
            />
        </clipPath>
    </defs>
</svg>